<svg width="743" height="116" viewBox="0 0 743 116" fill="none" xmlns="http://www.w3.org/2000/svg">
<rect width="191" height="116" transform="translate(552)" fill="#EC0B43"/>
<path d="M584.337 79L599.408 35.7714H608.171L623.301 79H616.115L612.786 69.3028H594.852L591.522 79H584.337ZM596.896 63.2274H610.741L603.848 43.0735L596.896 63.2274ZM636.649 79.5842C633.533 79.5842 631.099 78.6106 629.346 76.6633C627.594 74.7161 626.718 72.1263 626.718 68.8938V48.0389H633.377V68.076C633.377 69.9454 633.864 71.4058 634.838 72.4573C635.85 73.4698 637.213 73.9761 638.927 73.9761C640.601 73.9761 641.945 73.5477 642.958 72.691C643.97 71.8342 644.691 70.7437 645.119 69.4196C645.586 68.0565 645.82 66.6545 645.82 65.2136V48.0389H652.48V79H645.82V74.5603H645.47C645.158 75.1445 644.652 75.8455 643.951 76.6633C643.289 77.4422 642.354 78.1237 641.147 78.7079C639.978 79.2921 638.479 79.5842 636.649 79.5842ZM672.005 79.5842C669.552 79.5842 667.585 79.1363 666.105 78.2406C664.625 77.3448 663.554 76.157 662.892 74.6771C662.269 73.1583 661.957 71.5226 661.957 69.7701V53.4133H656.525V48.0389H661.957V40.3279H668.617V48.0389H675.861V53.4133H668.617V69.6533C668.617 72.5741 670.233 74.0345 673.466 74.0345C674.283 74.0345 675.043 73.9761 675.744 73.8593C676.445 73.7425 676.795 73.684 676.795 73.684V79.1168C676.795 79.1168 676.308 79.1947 675.335 79.3505C674.4 79.5063 673.29 79.5842 672.005 79.5842ZM682.442 79V34.603H689.102V52.5371H689.452C689.725 51.9918 690.192 51.3298 690.854 50.5509C691.516 49.733 692.431 49.0126 693.6 48.3894C694.807 47.7663 696.326 47.4548 698.156 47.4548C700.454 47.4548 702.382 47.9805 703.94 49.032C705.497 50.0835 706.666 51.4856 707.445 53.2381C708.262 54.9906 708.671 56.9183 708.671 59.0214V79H702.012V59.7224C702.012 57.853 701.486 56.2758 700.435 54.9906C699.422 53.7054 697.903 53.0628 695.878 53.0628C694.281 53.0628 692.977 53.4717 691.964 54.2896C690.99 55.0685 690.27 56.1005 689.803 57.3857C689.335 58.6319 689.102 59.9755 689.102 61.4165V79H682.442Z" fill="#FDE6EC"/>
<path d="M40.1564 47.3761C39.877 47.2726 39.636 47.0861 39.4659 46.8417C39.2957 46.5974 39.2044 46.3068 39.2044 46.0091C39.2044 45.7113 39.2957 45.4207 39.4659 45.1764C39.636 44.932 39.877 44.7455 40.1564 44.642C48.5351 41.608 63.2234 31.9414 63.664 1.45478C63.6674 1.26522 63.633 1.07688 63.5629 0.900726C63.4927 0.724574 63.3881 0.564131 63.2553 0.42874C63.1225 0.293349 62.964 0.185716 62.7891 0.112109C62.6143 0.0385024 62.4265 0.000392958 62.2367 0L43.1516 0C42.7851 0.00033444 42.4328 0.141167 42.1672 0.393451C41.9016 0.645736 41.7431 0.99023 41.7242 1.35588C41.4017 7.65674 37.8414 34.2384 1.02818 44.6388C0.743549 44.7147 0.490613 44.8794 0.306238 45.1089C0.121864 45.3385 0.0156897 45.6209 0.0031931 45.9149H0C0 45.95 0 45.9819 0 46.0138C0 46.0457 0 46.0808 0 46.1159C0.0124966 46.41 0.118671 46.6924 0.303045 46.9219C0.48742 47.1515 0.740356 47.3162 1.02499 47.3921C37.8382 57.7925 41.3985 84.3614 41.7211 90.675C41.7399 91.0406 41.8984 91.3851 42.164 91.6374C42.4296 91.8897 42.7819 92.0305 43.1484 92.0309H62.2335C62.4233 92.0305 62.6111 91.9924 62.7859 91.9188C62.9608 91.8451 63.1193 91.7375 63.2521 91.6021C63.3849 91.4667 63.4895 91.3063 63.5597 91.1301C63.6298 90.954 63.6642 90.7656 63.6608 90.5761C63.2234 60.0735 48.5351 50.4069 40.1564 47.3761Z" fill="#242930"/>
<path d="M196.248 91.9988H175.857V60.2584C175.857 57.4701 175.231 55.4495 173.98 54.1968C173.421 53.6051 172.748 53.1335 172 52.8109C171.253 52.4884 170.448 52.3216 169.634 52.3209C167.916 52.3209 166.092 53.0717 164.161 54.5733C162.228 56.0761 160.742 58.0784 159.866 60.3637V91.9956H139.475V35.5973H157.829V43.9623C159.832 40.8868 162.64 38.5473 166.252 36.9436C169.865 35.34 174.139 34.536 179.076 34.5317C182.939 34.5317 185.998 35.2283 188.253 36.6214C190.383 37.8903 192.156 39.6798 193.403 41.8216C194.577 43.8762 195.36 46.1305 195.712 48.4702C196.051 50.5988 196.23 52.7498 196.248 54.9051V91.9988Z" fill="#242930"/>
<path d="M219.321 91.9987L200.325 35.5972H221.253L231.343 76.0216L241.535 35.5972H260.531L241.535 91.9987H219.321Z" fill="#242930"/>
<path d="M291.654 93.0708C286.718 93.0708 282.318 92.3019 278.454 90.7642C274.814 89.3743 271.506 87.2377 268.744 84.492C266.16 81.8897 264.135 78.7882 262.792 75.3773C261.429 71.9304 260.738 68.2553 260.755 64.5494C260.733 60.603 261.404 56.6833 262.738 52.9686C264.01 49.4073 266.022 46.1553 268.642 43.4264C271.38 40.6223 274.668 38.4132 278.301 36.9373C282.132 35.3293 286.586 34.5254 291.661 34.5254C296.667 34.5254 301.104 35.3293 304.97 36.9373C308.611 38.4053 311.914 40.6003 314.677 43.3881C317.276 46.0458 319.289 49.2181 320.587 52.7006C321.914 56.2492 322.586 60.0084 322.573 63.7965C322.573 64.8716 322.519 65.9595 322.413 67.0697C322.308 68.18 322.18 69.1594 322.037 70.0176H282.442C282.655 73.0186 283.764 75.1806 285.769 76.5035C287.703 77.8058 289.984 78.4972 292.315 78.4879C294.498 78.4976 296.651 77.9822 298.593 76.9852C300.56 75.9877 301.866 74.5946 302.511 72.8059L319.789 77.7381C317.498 82.2386 313.975 85.9202 309.22 88.783C304.464 91.6458 298.609 93.075 291.654 93.0708ZM300.672 57.7923C300.31 55.0763 299.307 52.9324 297.664 51.3607C296.02 49.7889 293.91 49.0019 291.332 48.9998C288.758 48.9998 286.648 49.7868 285 51.3607C283.352 52.9345 282.351 55.0784 281.995 57.7923H300.672Z" fill="#242930"/>
<path d="M367.526 52.959C363.908 52.9167 360.301 53.3457 356.794 54.2351C353.575 55.0859 351.178 56.5162 349.603 58.5261V91.9988H329.209V35.5974H347.882V46.32C349.883 42.532 352.369 39.6193 355.341 37.5817C358.149 35.5941 361.505 34.5262 364.946 34.5254C365.805 34.4986 366.666 34.5348 367.52 34.6339L367.526 52.959Z" fill="#242930"/>
<path d="M395.539 91.9989C392.071 92.0384 388.639 91.2866 385.506 89.8008C382.514 88.3749 379.861 86.328 377.724 83.7966C375.516 81.1486 373.824 78.1113 372.734 74.8414C371.524 71.2441 370.925 67.47 370.961 63.6753C370.917 59.6974 371.565 55.742 372.877 51.986C374.065 48.5871 375.909 45.4544 378.305 42.766C380.623 40.1936 383.45 38.1296 386.608 36.7044C389.95 35.2142 393.575 34.4643 397.234 34.5063C401.313 34.5063 404.89 35.3103 407.966 36.9182C411.024 38.5076 413.557 40.9446 415.262 43.9369V35.5974H432.984V86.8529C432.984 91.2832 432.161 95.286 430.516 98.8612C428.906 102.385 426.521 105.501 423.539 107.976C420.328 110.589 416.651 112.573 412.702 113.821C408.476 115.212 403.793 115.908 398.652 115.91C392.642 115.91 387.42 114.981 382.983 113.122C378.543 111.264 374.524 108.528 371.169 105.079L381.901 93.929C384.107 95.9453 386.625 97.5925 389.357 98.807C392.272 100.132 395.44 100.809 398.642 100.791C400.439 100.799 402.228 100.547 403.952 100.042C405.599 99.5663 407.123 98.7427 408.423 97.6266C409.769 96.4391 410.817 94.9516 411.482 93.2846C412.231 91.498 412.607 89.3541 412.609 86.8529V83.2064C411.051 86.1253 408.586 88.4589 405.584 89.855C402.437 91.3078 399.005 92.0402 395.539 91.9989V91.9989ZM402.838 75.9293C404.749 75.976 406.632 75.4744 408.266 74.4841C409.801 73.5185 411.25 72.0701 412.612 70.1389V60.0447C411.723 57.6299 410.174 55.5123 408.142 53.9321C406.183 52.4327 404.129 51.6829 401.979 51.6829C400.572 51.6758 399.187 52.026 397.953 52.7006C396.702 53.379 395.591 54.2884 394.68 55.3805C393.715 56.5525 392.986 57.9003 392.534 59.3492C392.027 60.9253 391.774 62.5718 391.784 64.2272C391.784 67.7302 392.82 70.5536 394.894 72.6975C396.967 74.8414 399.615 75.9187 402.838 75.9293Z" fill="#242930"/>
<path d="M471.091 77.049C478.417 77.049 484.355 71.1157 484.355 63.7965C484.355 56.4773 478.417 50.5439 471.091 50.5439C463.765 50.5439 457.827 56.4773 457.827 63.7965C457.827 71.1157 463.765 77.049 471.091 77.049Z" fill="#EC0B43"/>
<path d="M130.301 51.7979C129.008 48.3097 126.996 45.1317 124.396 42.4694C121.631 39.6915 118.327 37.5072 114.686 36.0505C110.823 34.4426 106.386 33.6387 101.377 33.6387C96.2961 33.6387 91.8417 34.4426 88.0143 36.0505C84.3929 37.5203 81.1078 39.7095 78.3583 42.4854C75.7564 45.146 73.7447 48.3246 72.4543 51.8139C69.8062 58.9756 69.8062 66.847 72.4543 74.0088C73.7447 77.4981 75.7564 80.6767 78.3583 83.3373C81.1095 86.1111 84.3941 88.3 88.0143 89.7722C91.846 91.3801 96.3004 92.184 101.377 92.184C106.384 92.184 110.82 91.3801 114.686 89.7722C118.327 88.3084 121.631 86.119 124.396 83.3373C126.996 80.6751 129.008 77.497 130.301 74.0088C132.949 66.847 132.949 58.9756 130.301 51.8139V51.7979ZM101.377 76.1463C98.7536 76.1482 96.1882 75.3726 94.0056 73.9175C91.8231 72.4625 90.1215 70.3934 89.1161 67.972C88.1107 65.5505 87.8467 62.8856 88.3574 60.3142C88.8681 57.7429 90.1306 55.3806 91.9853 53.5262C93.8399 51.6719 96.2033 50.4087 98.7766 49.8966C101.35 49.3845 104.017 49.6464 106.442 50.6491C108.866 51.6519 110.938 53.3505 112.396 55.5301C113.854 57.7097 114.632 60.2723 114.632 62.8938C114.632 66.4069 113.236 69.7763 110.75 72.2614C108.265 74.7464 104.894 76.1438 101.377 76.1463V76.1463Z" fill="#242930"/>
<path fill-rule="evenodd" clip-rule="evenodd" d="M471.091 93.0709C466.012 93.0709 461.558 92.267 457.731 90.6591C454.109 89.189 450.823 86.9998 448.072 84.2242C445.472 81.562 443.46 78.3839 442.168 74.8957C439.52 67.7339 439.52 59.8625 442.168 52.7008C443.462 49.2183 445.474 46.0458 448.072 43.3882C450.823 40.6126 454.109 38.4235 457.731 36.9534C461.563 35.3455 466.016 34.5415 471.091 34.5415C476.098 34.5415 480.534 35.3455 484.4 36.9534C488.041 38.4151 491.346 40.6048 494.11 43.3882C496.71 46.0505 498.721 49.2285 500.014 52.7167C502.662 59.8785 502.662 67.7499 500.014 74.9117C498.719 78.3942 496.708 81.5666 494.11 84.2242C491.344 87.0083 488.037 89.1981 484.393 90.6591C480.534 92.267 476.1 93.0709 471.091 93.0709ZM473.763 50.8132C479.808 52.0487 484.355 57.392 484.355 63.7965C484.355 69.4853 480.767 74.3368 475.729 76.2159C474.69 76.6034 473.59 76.8646 472.446 76.9806C472.001 77.0258 471.549 77.049 471.091 77.049C471.091 77.049 471.09 77.049 471.09 77.049C470.175 77.049 469.281 76.9563 468.417 76.7798C462.373 75.5441 457.826 70.2008 457.826 63.7965C457.826 58.0049 461.545 53.081 466.726 51.278C468.093 50.8024 469.561 50.5439 471.09 50.5439M471.091 50.5439C472.007 50.544 472.9 50.6367 473.763 50.8132Z" fill="#242930"/>
</svg>
