<svg width="164" height="191" viewBox="0 0 164 191" fill="none" xmlns="http://www.w3.org/2000/svg">
<path d="M81.8971 0L163.794 36.3987V99.0489C163.794 130.574 136.495 160.986 81.8971 190.285C27.299 160.986 0 130.574 0 99.0489V36.3987L81.8971 0Z" fill="#EC0B43"/>
<path d="M61.8907 111.352C55.2702 111.352 49.6428 109.022 45.0085 104.363C40.3742 99.7037 38.057 94.0461 38.057 87.39C38.057 80.734 40.3742 75.0763 45.0085 70.4171C49.6428 65.7578 55.2702 63.4282 61.8907 63.4282C67.5842 63.4282 72.4337 65.059 76.4391 68.3204C80.4445 71.5819 83.2085 75.509 84.7312 80.1016H125.447V94.6784H114.921V111.352H102.408V94.6784H84.7312C83.2085 99.2711 80.4445 103.198 76.4391 106.46C72.4337 109.721 67.5842 111.352 61.8907 111.352ZM61.8907 94.1792C63.8106 94.1792 65.416 93.5302 66.707 92.2323C67.998 90.9344 68.6435 89.3203 68.6435 87.39C68.6435 85.4598 67.998 83.8457 66.707 82.5477C65.416 81.2498 63.8106 80.6008 61.8907 80.6008C59.9707 80.6008 58.3653 81.2498 57.0743 82.5477C55.7833 83.8457 55.1378 85.4598 55.1378 87.39C55.1378 89.3203 55.7833 90.9344 57.0743 92.2323C58.3653 93.5302 59.9707 94.1792 61.8907 94.1792Z" fill="#FDE6EC"/>
</svg>
